<?xml version='1.0'?>
<!--
Bitly Generated QR Code
v5
37x37
-->
<svg width='720' height='720'
xmlns='http://www.w3.org/2000/svg'
xmlns:xlink='http://www.w3.org/1999/xlink'>
	<g id='background' style='fill:#ffffff' >
<rect x="0" y="0" width="720" height="720" />
</g>
<g id='pips' style='fill:#229ce0' >
<path d="M64,224L80,224L96,224L112,224L112,240L112,256L128,256L128,272L112,272L96,272L96,288L112,288L128,288L128,304L112,304L96,304L96,320L80,320L64,320L64,304L64,288L64,272L80,272L80,256L96,256L96,240L80,240L80,256L64,256L64,240L64,224M64,352L80,352L80,336L96,336L96,352L112,352L112,368L128,368L128,384L112,384L96,384L80,384L80,400L64,400L64,384L64,368L64,352M64,416L80,416L96,416L112,416L112,432L112,448L128,448L128,464L144,464L144,480L160,480L176,480L176,464L160,464L144,464L144,448L160,448L176,448L192,448L192,464L192,480L208,480L208,464L208,448L208,432L224,432L240,432L240,448L256,448L256,432L240,432L240,416L256,416L256,400L272,400L288,400L288,416L288,432L304,432L320,432L320,416L304,416L304,400L288,400L288,384L288,368L304,368L304,352L304,336L320,336L320,352L320,368L336,368L352,368L368,368L368,384L352,384L352,400L336,400L336,416L336,432L352,432L352,416L352,400L368,400L368,416L368,432L368,448L384,448L384,464L384,480L384,496L368,496L368,480L368,464L352,464L352,448L336,448L320,448L304,448L304,464L320,464L320,480L336,480L336,496L336,512L352,512L352,528L368,528L368,544L384,544L400,544L400,528L416,528L416,544L416,560L400,560L400,576L384,576L384,560L368,560L368,576L352,576L352,560L336,560L336,576L320,576L320,560L304,560L304,576L288,576L288,560L272,560L272,544L256,544L240,544L240,560L240,576L256,576L256,592L240,592L240,608L256,608L256,624L240,624L224,624L224,608L208,608L208,592L208,576L224,576L224,560L208,560L208,544L192,544L192,528L208,528L224,528L240,528L240,512L256,512L272,512L272,528L288,528L304,528L304,544L320,544L336,544L336,528L320,528L304,528L304,512L288,512L272,512L272,496L272,480L272,464L288,464L288,448L272,448L272,464L256,464L240,464L224,464L224,480L240,480L256,480L256,496L240,496L224,496L208,496L208,512L192,512L192,496L176,496L160,496L160,512L144,512L144,496L128,496L128,480L112,480L112,464L96,464L96,448L80,448L80,432L64,432L64,416M64,464L80,464L96,464L96,480L80,480L80,496L80,512L80,528L64,528L64,512L64,496L64,480L64,464M96,320L112,320L112,336L96,336L96,320M96,480L112,480L112,496L96,496L96,480M112,208L128,208L128,224L112,224L112,208M112,496L128,496L128,512L112,512L112,496M128,224L144,224L160,224L176,224L176,240L160,240L144,240L144,256L128,256L128,240L128,224M128,272L144,272L144,288L128,288L128,272M128,320L144,320L144,336L144,352L128,352L128,336L128,320M144,192L160,192L176,192L176,208L160,208L144,208L144,192M144,256L160,256L176,256L176,240L192,240L208,240L208,256L192,256L192,272L176,272L160,272L144,272L144,256M144,304L160,304L160,320L144,320L144,304M144,368L160,368L160,384L144,384L144,368M144,416L160,416L176,416L176,432L160,432L144,432L144,416M160,288L176,288L176,304L160,304L160,288M160,320L176,320L176,304L192,304L192,288L192,272L208,272L208,256L224,256L224,240L240,240L240,256L240,272L224,272L224,288L224,304L208,304L208,320L192,320L192,336L192,352L176,352L176,336L160,336L160,320M160,352L176,352L176,368L160,368L160,352M160,384L176,384L192,384L192,368L192,352L208,352L208,368L224,368L224,352L208,352L208,336L224,336L224,320L240,320L240,304L256,304L272,304L272,320L256,320L256,336L240,336L240,352L240,368L256,368L256,352L256,336L272,336L272,320L288,320L288,336L288,352L288,368L272,368L272,384L256,384L240,384L224,384L224,400L208,400L208,416L208,432L192,432L192,416L192,400L176,400L160,400L160,384M160,512L176,512L176,528L160,528L160,512M176,208L192,208L192,224L176,224L176,208M192,64L208,64L208,80L192,80L192,64M192,96L208,96L208,112L192,112L192,96M192,128L208,128L224,128L224,144L208,144L192,144L192,128M192,160L208,160L208,176L224,176L224,192L224,208L208,208L208,192L192,192L192,176L192,160M192,560L208,560L208,576L192,576L192,560M208,224L224,224L224,240L208,240L208,224M208,640L224,640L224,656L208,656L208,640M224,64L240,64L240,80L240,96L224,96L224,80L224,64M224,112L240,112L240,128L224,128L224,112M224,160L240,160L240,176L224,176L224,160M224,400L240,400L240,416L224,416L224,400M240,208L256,208L256,192L272,192L288,192L288,208L272,208L272,224L288,224L304,224L304,208L320,208L320,224L320,240L304,240L304,256L320,256L320,272L320,288L320,304L336,304L336,320L352,320L368,320L384,320L384,336L384,352L400,352L400,368L384,368L368,368L368,352L368,336L352,336L352,352L336,352L336,336L320,336L320,320L304,320L304,304L304,288L304,272L288,272L288,256L272,256L272,272L256,272L256,256L256,240L256,224L240,224L240,208M256,80L272,80L272,96L256,96L256,80M256,112L272,112L288,112L304,112L320,112L320,128L336,128L336,112L320,112L320,96L320,80L336,80L352,80L352,96L352,112L352,128L368,128L368,144L352,144L352,160L336,160L336,144L320,144L304,144L304,160L304,176L320,176L320,192L304,192L288,192L288,176L288,160L288,144L288,128L272,128L256,128L256,112M256,160L272,160L272,176L256,176L256,160M256,592L272,592L288,592L304,592L304,608L288,608L288,624L272,624L272,608L256,608L256,592M256,624L272,624L272,640L256,640L256,624M272,272L288,272L288,288L288,304L272,304L272,288L272,272M288,480L288,496L304,496L304,480L288,480M272,640L288,640L288,656L272,656L272,640M288,624L304,624L304,608L320,608L320,624L336,624L352,624L352,640L336,640L320,640L320,656L304,656L304,640L288,640L288,624M320,160L336,160L336,176L320,176L320,160M320,192L336,192L336,208L320,208L320,192M320,240L336,240L336,224L336,208L352,208L368,208L368,192L384,192L384,208L384,224L384,240L384,256L368,256L368,240L352,240L352,256L336,256L320,256L320,240M320,592L336,592L336,576L352,576L352,592L368,592L368,608L384,608L384,592L400,592L400,576L416,576L416,592L416,608L432,608L448,608L464,608L464,624L448,624L448,640L432,640L416,640L416,624L400,624L384,624L384,640L368,640L368,624L352,624L352,608L336,608L320,608L320,592M336,272L352,272L368,272L384,272L384,256L400,256L400,240L416,240L432,240L432,256L416,256L416,272L416,288L432,288L448,288L448,304L432,304L432,320L432,336L432,352L432,368L432,384L432,400L416,400L416,384L400,384L400,368L416,368L416,352L416,336L400,336L400,320L416,320L416,304L400,304L400,288L384,288L384,304L368,304L368,288L352,288L336,288L336,272M336,464L352,464L352,480L336,480L336,464M352,160L368,160L368,176L352,176L352,160M352,640L368,640L368,656L352,656L352,640M368,64L384,64L400,64L400,80L384,80L368,80L368,64M368,96L384,96L400,96L416,96L432,96L448,96L448,112L432,112L416,112L416,128L416,144L400,144L400,128L400,112L384,112L368,112L368,96M368,144L384,144L384,160L368,160L368,144M368,384L384,384L384,400L368,400L368,384M368,512L384,512L400,512L400,528L384,528L368,528L368,512M368,576L384,576L384,592L368,592L368,576M384,160L400,160L400,176L416,176L416,192L400,192L384,192L384,176L384,160M384,400L400,400L400,416L400,432L416,432L416,416L432,416L432,432L432,448L416,448L416,464L400,464L400,448L384,448L384,432L384,416L384,400M400,208L416,208L416,224L400,224L400,208M400,480L416,480L432,480L432,496L432,512L416,512L416,496L400,496L400,480M400,640L416,640L416,656L400,656L400,640M416,64L432,64L448,64L448,80L432,80L416,80L416,64M416,160L432,160L432,176L416,176L416,160M432,128L448,128L448,144L432,144L432,128M432,176L448,176L448,160L464,160L464,176L480,176L480,192L464,192L448,192L448,208L448,224L432,224L432,208L432,192L432,176M432,256L448,256L464,256L464,272L448,272L432,272L432,256M432,448L448,448L448,464L432,464L432,448M432,528L448,528L448,544L464,544L464,560L448,560L432,560L432,544L432,528M448,224L464,224L464,208L480,208L480,192L496,192L496,208L496,224L512,224L512,208L512,192L496,192L496,176L512,176L512,160L512,144L528,144L528,160L528,176L528,192L528,208L544,208L544,224L528,224L528,240L512,240L496,240L496,256L480,256L480,240L464,240L448,240L448,224M448,320L464,320L480,320L496,320L496,336L480,336L464,336L448,336L448,320M448,368L464,368L464,384L480,384L480,368L496,368L496,352L496,336L512,336L512,352L528,352L544,352L560,352L560,368L544,368L544,384L560,384L576,384L576,368L576,352L592,352L592,336L608,336L608,320L592,320L592,304L592,288L608,288L608,304L624,304L624,320L640,320L640,304L640,288L656,288L656,304L656,320L656,336L640,336L624,336L624,352L608,352L608,368L608,384L624,384L640,384L656,384L656,400L640,400L640,416L624,416L624,400L608,400L592,400L592,416L576,416L560,416L560,400L544,400L544,416L528,416L512,416L512,432L512,448L496,448L496,464L496,480L480,480L480,464L464,464L464,448L480,448L480,432L496,432L496,416L480,416L480,400L464,400L464,416L448,416L448,400L448,384L448,368M448,432L464,432L464,448L448,448L448,432M448,464L464,464L464,480L448,480L448,464M448,496L464,496L464,512L480,512L480,496L496,496L512,496L512,512L496,512L496,528L480,528L480,544L464,544L464,528L448,528L448,512L448,496M448,576L464,576L480,576L496,576L512,576L512,560L512,544L512,528L512,512L528,512L528,496L544,496L544,512L560,512L560,496L544,496L544,480L544,464L528,464L528,480L512,480L512,464L512,448L528,448L544,448L560,448L560,464L576,464L576,480L576,496L576,512L592,512L592,528L608,528L608,544L624,544L624,560L608,560L608,576L592,576L592,592L576,592L560,592L560,608L544,608L544,592L528,592L512,592L512,608L512,624L496,624L496,608L480,608L464,608L464,592L448,592L448,576M464,64L480,64L496,64L496,80L480,80L480,96L464,96L464,80L464,64M464,112L480,112L480,128L496,128L496,144L496,160L496,176L480,176L480,160L464,160L464,144L464,128L464,112M464,352L480,352L480,368L464,368L464,352M464,480L480,480L480,496L464,496L464,480M480,96L496,96L512,96L512,80L528,80L528,96L528,112L528,128L512,128L496,128L496,112L480,112L480,96M496,384L496,400L512,400L528,400L528,384L512,384L496,384M480,624L496,624L496,640L480,640L480,624M496,256L512,256L512,272L528,272L544,272L544,288L544,304L544,320L560,320L560,336L544,336L528,336L528,320L528,304L512,304L496,304L496,288L496,272L496,256M528,528L528,544L528,560L528,576L544,576L560,576L576,576L576,560L576,544L576,528L560,528L544,528L528,528M512,624L528,624L528,640L528,656L512,656L512,640L512,624M528,608L544,608L544,624L528,624L528,608M544,192L560,192L560,208L544,208L544,192M544,224L560,224L560,208L576,208L576,192L592,192L592,208L608,208L608,224L592,224L576,224L576,240L560,240L560,256L576,256L576,272L576,288L576,304L560,304L560,288L560,272L544,272L544,256L544,240L544,224M544,416L560,416L560,432L544,432L544,416M544,544L560,544L560,560L544,560L544,544M544,640L560,640L560,656L544,656L544,640M560,432L576,432L576,448L560,448L560,432M560,608L576,608L576,624L560,624L560,608M576,320L592,320L592,336L576,336L576,320M592,240L608,240L608,256L592,256L592,240M592,432L608,432L608,448L592,448L592,432M592,480L608,480L624,480L640,480L656,480L656,496L656,512L656,528L640,528L640,512L624,512L624,528L608,528L608,512L608,496L592,496L592,480M592,592L608,592L608,608L592,608L592,592M608,192L624,192L624,208L608,208L608,192M608,224L624,224L624,208L640,208L640,224L656,224L656,240L656,256L640,256L640,240L624,240L608,240L608,224M608,272L624,272L624,288L608,288L608,272M608,576L624,576L624,592L608,592L608,576M624,432L640,432L640,416L656,416L656,432L656,448L656,464L640,464L640,448L624,448L624,432M624,528L640,528L640,544L624,544L624,528M624,560L640,560L640,544L656,544L656,560L656,576L640,576L624,576L624,560M640,192L656,192L656,208L640,208L640,192M640,352L656,352L656,368L640,368L640,352Z" />
<path d="M4.7253,9.0689C6.179,9.0436 6.4149,7.6154 6.4149,6.769C6.4149,5.5163 5.775,5.0788 5,5C4.0425,5.4242 3.3403,6.146 3.2555,7.2606C3.2416,7.4443 3.237,7.6894 3.2516,7.9757C3.2906,8.7383 3.8493,9.0843 4.7253,9.0689 M 12.2447 10.8068 C 11.2047 10.8068 10.1118 10.1673 10.06 8.9707 C 8.8774 10.2223 7.0538 10.8186 4.7253 10.8186 C 2.3769 10.8186 1.396 9.2175 1.396 7.9703 C 1.4554 3.8126 1.3605 2.255 1.341 1.9353 C 1.3393 1.907 1.3381 1.8884 1.3377 1.8785 L 1.3373 1.8677 C 1.3313 1.7096 1.3224 1.4733 1.172 1.4572 C 1.0786 1.4472 1.0183 1.4757 0.911 1.6094 C 0.75 1.8233 0.425 1.908 0.2273 1.7937 C -0.0116 1.6555 -0.0562 1.3505 0.0647 1.0697 C 0.4002 0.3212 0.9379 -0.01 1.6625 0.0003 C 2.9146 0.0182 3.2738 0.8359 3.2738 1.8575 C 3.2738 1.8575 3.246 3.3292 3.246 4.1579 C 3.689 3.7969 4.3397 3.4098 5.4266 3.4098 C 7.6899 3.4098 9.1267 6.2118 7.6503 8.8925 C 9.5428 8.0197 9.9378 6.5164 10.0112 5.0238 L 10.0043 4.5203 C 10.0043 3.9552 10.3688 3.4767 10.9361 3.4767 C 11.5034 3.4767 11.8802 3.9877 11.86 4.5271 C 11.7919 6.3438 11.7644 7.5395 11.7644 8.1722 C 11.7644 8.5384 11.9642 9.0996 12.5555 9.0996 C 13.7134 9.0996 14.094 8.1922 14.1838 6.0595 C 14.1885 5.2642 14.1927 4.5997 14.1927 4.5997 C 13.6679 4.5997 13.4094 4.324 13.4094 3.9795 C 13.4094 3.635 13.683 3.3163 14.1321 3.3163 C 14.1321 3.3163 14.133 2.1182 14.133 1.622 C 14.133 1.0569 14.5715 0.5883 15.1388 0.5883 C 15.7062 0.5883 16.1567 1.0569 16.1567 1.622 C 16.1567 1.8095 16.1495 2.028 16.1416 2.2695 C 16.1315 2.5784 16.1201 2.9246 16.121 3.2909 L 16.2032 3.2905 H 16.2032 C 16.357 3.29 16.7051 3.2888 17.1681 3.2834 C 17.7198 3.2769 17.9445 3.5851 17.9445 3.9709 C 17.9445 4.3567 17.6475 4.626 17.2602 4.6276 C 16.9012 4.6291 16.1083 4.6247 16.1083 4.6247 C 16.0723 5.7674 16.0382 7.1451 16.0382 8.2475 C 16.0382 8.6451 16.3126 9.0995 16.9767 9.0995 C 18.3163 9.0995 18.8167 7.9092 18.9173 5.6498 C 18.9095 4.0766 18.8907 3.1653 18.8765 2.4785 V 2.4785 C 18.8666 1.9969 18.859 1.6258 18.859 1.2143 C 18.859 0.6493 19.3295 0.1442 19.8967 0.1442 C 20.4641 0.1442 20.8826 0.5977 20.8826 1.1627 C 20.8826 1.598 20.8651 2.1069 20.8413 2.8009 V 2.8009 V 2.801 C 20.801 3.9747 20.7425 5.6778 20.7195 8.4504 C 20.7165 8.8195 20.8967 9.0795 21.3748 9.0795 C 22.6524 9.0795 23.0066 7.6955 23.119 5.7625 C 23.1197 5.6695 23.1205 5.5785 23.1214 5.4891 L 23.1214 5.4887 C 23.1231 5.3054 23.1247 5.1289 23.1247 4.9561 C 23.1247 4.391 23.5011 3.9337 24.0686 3.9337 C 24.6359 3.9337 24.9694 4.4022 24.9694 4.9673 C 24.9694 5.3698 24.9562 5.7464 24.9427 6.1348 C 24.9307 6.4777 24.9184 6.8299 24.9146 7.2176 C 24.9047 8.2151 25.2455 9.0938 26.0756 9.0914 C 26.8726 9.0891 27.7479 8.7536 27.7691 7.045 C 27.7751 6.5701 27.7683 6.2053 27.7615 5.8371 V 5.837 V 5.8369 V 5.8368 C 27.7564 5.5642 27.7513 5.2897 27.7513 4.9673 C 27.7513 4.4022 28.1451 3.9337 28.7125 3.9337 C 29.2795 3.9337 29.6737 4.4022 29.6737 4.9673 C 29.6737 5.3051 29.6614 5.6415 29.6477 6.0145 V 6.0145 V 6.0146 V 6.0146 C 29.6307 6.4783 29.6117 6.9984 29.6117 7.6477 C 29.6117 7.6477 29.5769 10.0141 29.66 10.5378 C 29.9203 10.4512 30.2958 10.1968 30.6935 9.5802 C 30.9337 9.208 31.3928 9.1282 31.6758 9.293 C 32.0653 9.52 32.0514 9.9635 31.9058 10.2875 C 31.5298 11.1239 31.0409 11.6358 29.8047 12.0595 C 29.8086 13.4782 29.7098 15.5713 27.0868 15.9496 C 24.8405 16.2735 23.8244 14.9708 23.8211 13.8623 C 23.8157 12.112 25.5649 11.6022 28.0897 10.9665 L 28.0087 10.099 C 28.0087 10.099 27.4464 10.8364 26.0215 10.8008 C 24.9223 10.7733 24.1663 10.2543 23.7077 9.5213 C 23.1787 10.3901 22.3495 10.8105 21.1004 10.8105 C 20.2775 10.8105 19.4934 10.3758 19.1051 9.7457 C 18.5325 10.4308 17.7339 10.8015 16.6607 10.8015 C 15.7256 10.8015 15.0346 10.4786 14.6209 9.9746 C 14.087 10.5712 13.318 10.8068 12.2447 10.8068 Z M 28.2548 12.363 C 26.9786 12.6385 25.3798 13.0407 25.3983 13.8266 C 25.4158 14.5636 26.1767 14.6977 26.8111 14.5666 C 28.1286 14.2943 28.2816 13.5015 28.2548 12.363 Z M 11.9704 1.6249 C 11.9704 1.0544 11.5073 0.5932 10.9347 0.5932 C 10.3619 0.5932 9.8989 1.0544 9.8989 1.6249 C 9.8989 2.1953 10.3619 2.6566 10.9347 2.6566 C 11.5073 2.6566 11.9704 2.1953 11.9704 1.6249 Z" fill='#229ce0' transform='translate(584.000000, 620.000000) scale(2.250000, 2.250000)' />
</g>
<g id='corners-outer-1' style='fill:#229ce0' >
<path d="M64,64L80,64L96,64L112,64L128,64L144,64L160,64L176,64L176,80L176,96L176,112L176,128L176,144L176,160L176,176L160,176L144,176L128,176L112,176L96,176L80,176L64,176L64,160L64,144L64,128L64,112L64,96L64,80L64,64M80,80L80,96L80,112L80,128L80,144L80,160L96,160L112,160L128,160L144,160L160,160L160,144L160,128L160,112L160,96L160,80L144,80L128,80L112,80L96,80L80,80Z" />
</g>
<g id='corners-inner-1' style='fill:#229ce0' >
<path d="M96,96L112,96L128,96L144,96L144,112L144,128L144,144L128,144L112,144L96,144L96,128L96,112L96,96Z" />
</g>
<g id='corners-outer-2' style='fill:#229ce0' >
<path d="M544,64L560,64L576,64L592,64L608,64L624,64L640,64L656,64L656,80L656,96L656,112L656,128L656,144L656,160L656,176L640,176L624,176L608,176L592,176L576,176L560,176L544,176L544,160L544,144L544,128L544,112L544,96L544,80L544,64M560,80L560,96L560,112L560,128L560,144L560,160L576,160L592,160L608,160L624,160L640,160L640,144L640,128L640,112L640,96L640,80L624,80L608,80L592,80L576,80L560,80Z" />
</g>
<g id='corners-inner-2' style='fill:#229ce0' >
<path d="M576,96L592,96L608,96L624,96L624,112L624,128L624,144L608,144L592,144L576,144L576,128L576,112L576,96Z" />
</g>
<g id='corners-outer-3' style='fill:#229ce0' >
<path d="M64,544L80,544L96,544L112,544L128,544L144,544L160,544L176,544L176,560L176,576L176,592L176,608L176,624L176,640L176,656L160,656L144,656L128,656L112,656L96,656L80,656L64,656L64,640L64,624L64,608L64,592L64,576L64,560L64,544M80,560L80,576L80,592L80,608L80,624L80,640L96,640L112,640L128,640L144,640L160,640L160,624L160,608L160,592L160,576L160,560L144,560L128,560L112,560L96,560L80,560Z" />
</g>
<g id='corners-inner-3' style='fill:#229ce0' >
<path d="M96,576L112,576L128,576L144,576L144,592L144,608L144,624L128,624L112,624L96,624L96,608L96,592L96,576Z" />
</g>
</svg>
